<svg id="Layer_1" xmlns="http://www.w3.org/2000/svg" xmlns:xlink="http://www.w3.org/1999/xlink" width="1500" height="792"><style>.st0{fill:#fff;stroke:#a7988c;stroke-miterlimit:10}.st0,.st1,.st13,.st9{stroke-width:.75;stroke-linecap:round;stroke-linejoin:round}.st1{stroke-miterlimit:10;fill:#fff;stroke:#604b3c}.st13,.st9{fill:none;stroke:#a7988c}.st13{stroke-miterlimit:10}.st22{fill:#fff}.st23{fill:#a7988c}.st24,.st25,.st26,.st27{stroke-width:.75;stroke-linejoin:round;stroke-miterlimit:10}.st24{fill:none;stroke:#a7988c}.st25,.st26,.st27{stroke:#916e2b}.st25{stroke-linecap:round;fill:#fff}.st26,.st27{fill:none}.st27{fill:#fff}.st28,.st29,.st30,.st31,.st32,.st33,.st34{fill:none;stroke-width:.75;stroke-linecap:round;stroke-linejoin:round}.st28{stroke-miterlimit:10;stroke:#916e2b}.st29,.st30,.st31,.st32,.st33,.st34{stroke:#a7988c;stroke-dasharray:0,1.5181}.st30,.st31,.st32,.st33,.st34{stroke-dasharray:0,1.4846}.st31,.st32,.st33,.st34{stroke-dasharray:0,1.5152}.st32,.st33,.st34{stroke-dasharray:0,1.5063}.st33,.st34{stroke-dasharray:0,1.4032}.st34{stroke-dasharray:0,1.4171}.st36{fill:#916e2b;stroke:#916e2b;stroke-width:.25;stroke-miterlimit:10}</style><path d="M1500 162.1c-17.3-3.9-28.6-15.4-40.6-10.7-14.4 5.5-62.3 43.4-74.7 43.4-12.5 0-50.2-28.3-64.2-24.9-10.4 2.5-80.9 41.7-106.8 57.7-23.3-13.6-41.8-22.9-49.4-23.1-6.6-.2-21.1 5.5-39.7 14.5-49.5-32.1-99.3-63-113.1-63.5-19.7-.7-110.5 52.4-168.5 88.5-3.4 1.3-7.1 2.8-10.8 4.4-15.3 6.5-108-74.8-118.5-73.9-10.5.9-24 0-37.4-1.8-13.4-1.8-51.1-25.1-58.3-25.7-8.2-.7-23.3 5.2-32.8 3.5-9.5-1.7-29.7-13.6-37.1-11.3-9.6 3-21.4 26.2-34.6 29.9-5.6 1.5-17.5-9.6-24.2-9.6-2.4 0-11.5 5.5-22.4 12.8-11.6-11.6-21-21.8-27.1-25.4-15.3-9.2-65.1-22.1-82.4-27.7-17.2-5.5-61.6-53-81.8-50.5-13.3 1.6-41.8 31.1-47.5 31.1-5.7 0-20.7-2.8-24.4-2-4.5.9-24.2 25.1-44.3 37.1-4.5 2.7-27.9 25.6-61.5 59.5-4-1.3-7.2-2.3-9.2-2.6-11.5-1.8-13.4-4.6-33.5-6.5-13.9-1.3-38.7-17-55.3-28.2" fill="#fff" stroke="#d6d2ca" stroke-width=".75" stroke-linecap="round" stroke-linejoin="round" stroke-miterlimit="10"/><path class="st0" d="M706.4 252.7l-7.9 77.7h27.8l-8-77.7zM719.5 264.7h-14.2M720.8 278h-16.9M722.1 291.2h-19.6M723.4 304.5h-22.2M724.8 317.7h-24.9"/><path class="st13" d="M712.4 252.6v-10.2"/><circle class="st0" cx="712.4" cy="242.3" r=".7"/><path class="st0" d="M645 403.3h134.4v328.9H645z"/><path class="st13" d="M668.3 414.2v317.6M756.4 414.2v317.6"/><path class="st0" d="M688 359.7h48.8v33.7H688zM645.2 425.4h134.4v5.3H645.2z"/><path class="st0" d="M704.3 364.7h5.9v6.9h-5.9zM714.1 364.7h5.9v6.9h-5.9zM714.2 379.4h5.9v10.1h-5.9zM703.9 379.4h5.9v10.1h-5.9zM685.5 414.2h5.9v318h-5.9zM709.4 414.2h5.9v318h-5.9zM733.4 414.2h5.9v318h-5.9zM653.5 414.2h5.8V442h-5.8zM764.8 414.2h5.8V442h-5.8z"/><path class="st0" d="M645.1 404.4h134.4v9.9H645.1zM684.6 338.1h55.5V352h-55.5zM733.1 338.1h-41.5l-2.3-7.6h46.1zM740.1 352.1h-55.5l3 7.6h49.5z"/><path class="st0" d="M642.1 393.3h140.6v15.9H642.1zM645.2 441.9h134.4v6H645.2zM645.2 459.3h134.4v5.9H645.2z"/><g><path class="st22" d="M713.2 264.1c-.2 0-.3-.1-.4-.3l-.5-3.3-.5 3.3c0 .2-.2.3-.4.3h-2.2c-.2 0-.3-.1-.4-.3l-2-11.5c0-.1 0-.2.1-.3s.2-.1.3-.1h2.6c.2 0 .3.1.4.3l.5 3.9.5-3.9c0-.2.2-.3.4-.3h1.9c.2 0 .3.1.4.3l.5 4 .6-4c0-.2.2-.3.4-.3h2.3c.1 0 .2 0 .3.1s.1.2.1.3l-2.1 11.5c0 .2-.2.3-.4.3h-2.4z"/><path class="st23" d="M717.6 252.3l-2.1 11.5h-2.2l-.9-5.6-.9 5.6h-2.2l-2-11.5h2.6l.9 6.7.9-6.7h1.9l.9 6.7.9-6.7h2.2m0-.8h-2.3c-.4 0-.7.3-.7.6l-.2 1.2-.2-1.2c0-.4-.4-.7-.7-.7h-1.9c-.4 0-.7.3-.7.6l-.2 1.1-.1-1.1c0-.4-.4-.7-.7-.7h-2.6c-.2 0-.4.1-.6.3s-.2.4-.2.6l2 11.5c.1.4.4.6.7.6h2.2c.4 0 .7-.3.7-.6l.2-1 .2 1c.1.4.4.6.7.6h2.2c.4 0 .7-.3.7-.6l2.1-11.5c0-.2 0-.4-.2-.6 0 0-.2-.1-.4-.1zm0 1.5z"/><path class="st22" d="M713.2 277.4c-.2 0-.4-.1-.4-.3l-.1-1.4h-.9l-.2 1.4c0 .2-.2.3-.4.3h-2.4c-.1 0-.2 0-.3-.1-.1-.1-.1-.2-.1-.3l2-11.5c0-.2.2-.3.4-.3h3.1c.2 0 .3.1.4.3l2 11.5c0 .1 0 .2-.1.3s-.2.1-.3.1h-2.7zm-.8-4.4l-.1-.8-.1.8h.2z"/><path class="st23" d="M713.9 265.5l2 11.5h-2.7l-.2-1.7h-1.6l-.2 1.7h-2.4l2-11.5h3.1m-2.1 7.8h1l-.4-4.2-.6 4.2m2.1-8.5h-3.1c-.4 0-.7.3-.7.6l-2 11.5c0 .2 0 .4.2.6.1.2.4.3.6.3h2.4c.4 0 .7-.3.7-.6l.2-1.1h.2l.1 1c0 .4.4.7.7.7h2.7c.2 0 .4-.1.6-.3.1-.2.2-.4.2-.6l-2-11.5c-.1-.3-.4-.6-.8-.6z"/><path class="st22" d="M709.6 290.7c-.2 0-.4-.2-.4-.4v-11.5c0-.2.2-.4.4-.4h2.7c.2 0 .4.2.4.4v8.8h2.4c.2 0 .4.2.4.4v2.3c0 .2-.2.4-.4.4h-5.5z"/><path class="st23" d="M712.3 278.8v9.2h2.8v2.3h-5.5v-11.5h2.7m0-.7h-2.7c-.4 0-.8.3-.8.8v11.5c0 .4.3.8.8.8h5.5c.4 0 .8-.3.8-.8V288c0-.4-.3-.8-.8-.8H713v-8.4c0-.4-.3-.7-.7-.7z"/><g><path class="st22" d="M713.1 303.9c-.2 0-.3-.1-.4-.3l-.7-3.2-.1.3v2.8c0 .2-.2.4-.4.4h-2.7c-.2 0-.4-.2-.4-.4V292c0-.2.2-.4.4-.4h2.7c.2 0 .4.2.4.4v2.5l.8-2.6c0-.2.2-.3.4-.3h2.6c.1 0 .2.1.3.2.1.1.1.2 0 .3l-1.6 4.7 1.8 6.6c0 .1 0 .2-.1.3-.1.1-.2.1-.3.1h-2.7z"/><path class="st23" d="M715.6 292.1l-1.7 4.8 1.8 6.7H713l-1-4.4-.6 1.5v2.9h-2.7v-11.5h2.7v5l1.5-5h2.7m0-.8H713c-.3 0-.6.2-.7.5l-.1.2c0-.4-.4-.7-.7-.7h-2.7c-.4 0-.8.3-.8.8v11.5c0 .4.3.8.8.8h2.7c.4 0 .8-.3.8-.8v-.3l.1.4c.1.3.4.6.7.6h2.7c.2 0 .5-.1.6-.3.1-.2.2-.4.1-.7l-1.8-6.5 1.6-4.6c.1-.2 0-.5-.1-.7-.1-.1-.3-.2-.6-.2zm0 1.5z"/></g><g><path class="st22" d="M709.6 317.2c-.2 0-.4-.2-.4-.4v-11.5c0-.2.2-.4.4-.4h5.6c.2 0 .4.2.4.4v2.2c0 .2-.2.4-.4.4h-2.6v1.6h1.6c.2 0 .4.2.4.4v2c0 .2-.2.4-.4.4h-1.6v1.8h2.6c.2 0 .4.2.4.4v2.3c0 .2-.2.4-.4.4h-5.6z"/><path class="st23" d="M715.2 305.3v2.2h-3v2.4h1.9v2h-1.9v2.6h3v2.3h-5.6v-11.5h5.6m0-.7h-5.6c-.4 0-.8.3-.8.8v11.5c0 .4.3.8.8.8h5.6c.4 0 .8-.3.8-.8v-2.3c0-.4-.3-.8-.8-.8H713v-1.1h1.2c.4 0 .8-.3.8-.8v-2c0-.4-.3-.8-.8-.8H713v-.9h2.2c.4 0 .8-.3.8-.8v-2.2c-.1-.3-.4-.6-.8-.6z"/></g><g><path class="st22" d="M713.9 330.4c-1 0-1-1.9-1-2.2v-2.1c0-.1 0-.3-.2-.3h-.2v4.2c0 .2-.2.4-.4.4h-2.7c-.2 0-.4-.2-.4-.4v-11.5c0-.2.2-.4.4-.4h3.7c1.4 0 2.9 1 2.9 2.8v2c0 .6-.3 1.1-.8 1.5.5.4.8 1 .8 1.5v2.1c0 .7.2 1.3.3 1.8v.1c0 .2-.2.4-.4.4h-2zm-1.1-7.1s.1 0 .1-.2v-1.9-.2h-.3v2.2c-.1.1.2.1.2.1z"/><path class="st23" d="M713.2 318.6c1.3 0 2.6.9 2.6 2.4v2c0 .6-.4 1.2-1.1 1.5.7.3 1.1.9 1.1 1.5v2.1c0 .7.2 1.3.3 1.9v.1h-2.2c-.4 0-.6-1-.6-1.8v-2.1c0-.3-.2-.7-.6-.7h-.6v4.5h-2.7v-11.5h3.8m-1.1 5.1h.7c.3 0 .4-.2.4-.6v-1.9c0-.4-.2-.6-.4-.6h-.7v3.1m1.1-5.8h-3.7c-.4 0-.8.3-.8.8v11.5c0 .4.3.8.8.8h2.7c.4 0 .8-.3.8-.8.2.5.6.8 1 .8h2.2c.4 0 .8-.3.8-.8v-.1-.2c-.1-.5-.3-1-.3-1.6V326c0-.6-.2-1.1-.6-1.5.4-.4.6-1 .6-1.5v-2c-.2-2.1-1.9-3.2-3.5-3.2z"/></g></g><g><path class="st22" d="M690.5 352.3c-2.2 0-3.8-1.5-3.8-3.5V343c0-2.1 1.6-3.5 3.8-3.5 2.1 0 3.5 1.4 3.5 3.4v1.5c0 .2-.2.4-.4.4h-2.3c-.2 0-.4-.2-.4-.4v-1.6c0-.1 0-.3-.4-.3-.2 0-.4.1-.4.3v6.1c0 .2.1.3.4.3.3 0 .4-.2.4-.3v-1.6c0-.2.2-.4.4-.4h2.3c.2 0 .4.2.4.4v1.5c0 2.1-1.4 3.5-3.5 3.5z"/><path class="st23" d="M690.5 339.9c1.9 0 3.1 1.2 3.1 3v1.5h-2.3v-1.6c0-.4-.3-.7-.7-.7-.5 0-.7.3-.7.7v6.1c0 .4.2.7.7.7.5 0 .7-.3.7-.7v-1.6h2.3v1.5c0 1.8-1.2 3-3.1 3-2 0-3.4-1.3-3.4-3.2V343c-.1-1.9 1.4-3.1 3.4-3.1m0-.8c-2.4 0-4.2 1.6-4.2 3.9v5.7c0 2.3 1.8 3.9 4.2 3.9 2.3 0 3.8-1.5 3.8-3.8v-1.5c0-.4-.3-.8-.8-.8h-2.3c-.3 0-.6.2-.7.5v-2.6c.1.3.4.5.7.5h2.3c.4 0 .8-.3.8-.8v-1.5c0-2-1.5-3.5-3.8-3.5z"/><path class="st22" d="M696.3 352c-.2 0-.4-.2-.4-.4v-11.5c0-.2.2-.4.4-.4h5.7c.2 0 .4.2.4.4v2.2c0 .2-.2.4-.4.4h-2.6v1.6h1.6c.2 0 .4.2.4.4v2c0 .2-.2.4-.4.4h-1.6v1.8h2.6c.2 0 .4.2.4.4v2.4c0 .2-.2.4-.4.4h-5.7z"/><path class="st23" d="M701.9 340.1v2.2h-3v2.4h1.9v2H699v2.6h3v2.4h-5.7v-11.5h5.6m0-.8h-5.7c-.4 0-.8.3-.8.8v11.5c0 .4.3.8.8.8h5.7c.4 0 .8-.3.8-.8v-2.4c0-.4-.3-.8-.8-.8h-2.2v-1.1h1.2c.4 0 .8-.3.8-.8v-2c0-.4-.3-.8-.8-.8h-1.2v-.9h2.2c.4 0 .8-.3.8-.8v-2.2c0-.2-.3-.5-.8-.5z"/><path class="st22" d="M709.1 352c-.2 0-.3-.1-.4-.2l-1.6-4.1v3.9c0 .2-.2.4-.4.4h-2.4c-.2 0-.4-.2-.4-.4v-11.5c0-.2.2-.4.4-.4h2.4c.2 0 .3.1.4.2l1.4 4V340c0-.2.2-.4.4-.4h2.3c.2 0 .4.2.4.4v11.5c0 .2-.2.4-.4.4h-2.1z"/><path class="st23" d="M711.3 340.1v11.5h-2.2l-1.6-4.2-.7-1.6v5.9h-2.4v-11.5h2.4l1.5 4.3.6 1.6v-5.9h2.4m0-.8H709c-.4 0-.8.3-.8.8v1.7l-.7-2c-.1-.3-.4-.5-.7-.5h-2.4c-.4 0-.8.3-.8.8v11.5c0 .4.3.8.8.8h2.4c.4 0 .8-.3.8-.8v-1.9l.8 2.2c.1.3.4.5.7.5h2.2c.4 0 .8-.3.8-.8v-11.5c0-.5-.3-.8-.8-.8z"/><g><path class="st22" d="M715.6 352c-.2 0-.4-.2-.4-.4v-8.9h-1.5c-.2 0-.4-.2-.4-.4V340c0-.2.2-.4.4-.4h6.4c.2 0 .4.2.4.4v2.3c0 .2-.2.4-.4.4h-1.5v8.9c0 .2-.2.4-.4.4h-2.6z"/><path class="st23" d="M720.2 340.1v2.3h-1.9v9.3h-2.7v-9.3h-1.9v-2.3h6.5m0-.7h-6.4c-.4 0-.8.3-.8.8v2.3c0 .4.3.8.8.8h1.1v8.5c0 .4.3.8.8.8h2.7c.4 0 .8-.3.8-.8v-8.5h1.1c.4 0 .8-.3.8-.8v-2.3c-.2-.5-.5-.8-.9-.8z"/></g><g><path class="st22" d="M722.7 352c-.2 0-.4-.2-.4-.4v-11.5c0-.2.2-.4.4-.4h5.7c.2 0 .4.2.4.4v2.2c0 .2-.2.4-.4.4h-2.6v1.6h1.6c.2 0 .4.2.4.4v2c0 .2-.2.4-.4.4h-1.6v1.8h2.6c.2 0 .4.2.4.4v2.4c0 .2-.2.4-.4.4h-5.7z"/><path class="st23" d="M728.4 340.1v2.2h-3v2.4h1.9v2h-1.9v2.6h3v2.4h-5.7v-11.5h5.7m0-.8h-5.7c-.4 0-.8.3-.8.8v11.5c0 .4.3.8.8.8h5.7c.4 0 .8-.3.8-.8v-2.4c0-.4-.3-.8-.8-.8h-2.2v-1.1h1.2c.4 0 .8-.3.8-.8v-2c0-.4-.3-.8-.8-.8h-1.2v-.9h2.2c.4 0 .8-.3.8-.8v-2.2c-.1-.2-.4-.5-.8-.5z"/></g><g><path class="st22" d="M735.5 352c-1 0-1-1.9-1-2.2v-2.1c0-.1 0-.3-.2-.3h-.3v4.2c0 .2-.2.4-.4.4H731c-.2 0-.4-.2-.4-.4v-11.5c0-.2.2-.4.4-.4h3.7c1.4 0 2.9 1 2.9 2.8v2c0 .6-.3 1.1-.8 1.5.5.4.8 1 .8 1.5v2.1c0 .7.2 1.3.3 1.8v.1c0 .2-.2.4-.4.4h-2zm-1.2-7.2s.1 0 .1-.2v-1.9-.2h-.3v2.2c-.1.1.2.1.2.1z"/><path class="st23" d="M734.7 340.1c1.3 0 2.6.9 2.6 2.4v2c0 .6-.4 1.2-1.1 1.5.7.3 1.1.9 1.1 1.5v2.1c0 .7.2 1.3.3 1.9v.1h-2.2c-.4 0-.6-1-.6-1.8v-2.1c0-.3-.2-.7-.6-.7h-.6v4.6H731v-11.5h3.7m-1 5.1h.7c.3 0 .5-.2.5-.6v-1.9c0-.4-.2-.6-.5-.6h-.7v3.1m1-5.8H731c-.4 0-.8.3-.8.8v11.5c0 .4.3.8.8.8h2.7c.4 0 .8-.3.8-.8.2.5.6.8 1.1.8h2.2c.4 0 .8-.3.8-.8v-.1-.2c-.1-.5-.3-1-.3-1.6v-2.1c0-.6-.2-1.1-.6-1.6.4-.4.6-1 .6-1.5v-2c-.2-2.1-2-3.2-3.6-3.2z"/></g></g><g><path class="st0" d="M1475.6 703.4h3.9v20.7h-3.9z"/><path class="st0" d="M1489.7 690.9c0 10.4-5.4 18.9-12.1 18.9s-12.1-8.4-12.1-18.9 12.1-32.4 12.1-32.4 12.1 22 12.1 32.4zM1457 709h6v20.7h-6z"/><path class="st0" d="M1478.8 696.4c0 10.4-8.4 18.9-18.9 18.9-10.4 0-18.9-8.4-18.9-18.9s18.9-32.4 18.9-32.4 18.9 22 18.9 32.4zM1480.5 718.6c-1.4-2.2-3.9-3.6-6.8-3.6-3.9 0-7.1 2.6-7.8 6-2.9.3-5.1 2.2-5.1 4.5 0 2.5 2.6 4.5 5.9 4.5h13.2c3.6 0 6.6-2.5 6.6-5.7-.1-3-2.7-5.4-6-5.7zM1445 718.7c0-6.1-5-11.1-11.3-11.1-4.7 0-8.7 2.9-10.4 6.9h-.4c-4.3 0-7.7 3.4-7.7 7.6 0 4.2 3.5 7.6 7.7 7.6.5 0 10.1.1 10.8.1.8 0 1.5-.1 2.2-.2 5.3-1.1 9.1-5.6 9.1-10.9z"/><path class="st0" d="M1444.6 718.4c-1.4-2.2-3.9-3.6-6.8-3.6-3.9 0-7.1 2.6-7.8 6-2.9.3-5.1 2.2-5.1 4.5 0 2.5 2.6 4.5 5.9 4.5h13.2c3.6 0 6.6-2.5 6.6-5.7-.1-3-2.7-5.4-6-5.7z"/><path class="st1" d="M1299.8 667.9h-230.9l-65.1 21.4h361.1zM1235.8 696.2h20.7v36.1h-20.7z"/><path class="st13" d="M1149.2 732.3h147"/><path class="st0" d="M1199.3 723.4h-1.6c-.7 0-1.3-.6-1.3-1.3v-.8c0-.7.6-1.3 1.3-1.3h1.6c.7 0 1.3.6 1.3 1.3v.8c0 .7-.6 1.3-1.3 1.3zM1227.8 723.4h-1.6c-.7 0-1.3-.6-1.3-1.3v-.8c0-.7.6-1.3 1.3-1.3h1.6c.7 0 1.3.6 1.3 1.3v.8c0 .7-.6 1.3-1.3 1.3z"/><path class="st0" d="M1225.2 724.5h-24.7c-1.1 0-1.5-1.5-.8-3.2l3-7.7c.4-.9 1.2-1.6 2-1.6h16.4c.7 0 1.6.7 2 1.7l2.9 7.7c.7 1.6.3 3.1-.8 3.1z"/><path class="st0" d="M1223.7 726.7h-21.9c-1 0-1.3-1.5-.7-3.2l2.6-7.7c.3-.9 1.1-1.6 1.8-1.6h14.6c.7 0 1.4.7 1.8 1.7l2.6 7.7c.5 1.6.2 3.1-.8 3.1z"/><circle class="st0" cx="1218.4" cy="721.9" r="2.8"/><path class="st0" d="M1204.4 736.2h-1.6c-1 0-1.9-.8-1.9-1.9v-4.1c0-1 .8-1.9 1.9-1.9h1.6c1 0 1.9.8 1.9 1.9v4.1c0 1-.9 1.9-1.9 1.9zM1222.6 736.2h-1.6c-1 0-1.9-.8-1.9-1.9v-4.1c0-1 .8-1.9 1.9-1.9h1.6c1 0 1.9.8 1.9 1.9v4.1c0 1.1-.8 1.9-1.9 1.9z"/><path class="st0" d="M1225.3 732.8h-25c-1.4 0-2.5-1.1-2.5-2.5v-5.9c0-1.4 1.1-2.5 2.5-2.5h25c1.4 0 2.5 1.1 2.5 2.5v5.9c0 1.4-1.1 2.5-2.5 2.5z"/><path transform="translate(1.36 -2.262)" class="st0" d="M1208.5 725.6h8.6v3.7h-8.6z"/><path class="st0" d="M1205.7 729.5h-3.8c-.6 0-1.1-.5-1.1-1.1v-1.9c0-.6.5-1.1 1.1-1.1h3.8c.6 0 1.1.5 1.1 1.1v1.9c0 .6-.5 1.1-1.1 1.1zM1223.5 729.5h-3.8c-.6 0-1.1-.5-1.1-1.1v-1.9c0-.6.5-1.1 1.1-1.1h3.8c.6 0 1.1.5 1.1 1.1v1.9c0 .6-.5 1.1-1.1 1.1z"/><path class="st13" d="M1210.1 727.5h5.3"/><path class="st1" d="M1341.2 696.2h20.7v33.4h-20.7zM1364.6 692.5h-362.8l-4.9-3.2h372.6z"/><path class="st1" d="M1001.8 692.5h363.1v3.8h-363.1z"/><path class="st0" d="M1490.1 732.5c.2 1.1-1 2-2.2 2-1.3 0-2.4-.5-3.1-1.2-.7.7-1.8 1.2-3.1 1.2s-2.4-.5-3.1-1.2c-.7.7-1.8 1.2-3.1 1.2s-2.4-.5-3.1-1.2c-.7.7-1.8 1.2-3.1 1.2s-2.4-.5-3.1-1.2c-.7.7-1.8 1.2-3.1 1.2s-2.4-.5-3.1-1.2c-.7.7-1.8 1.2-3.1 1.2s-2.4-.5-3.1-1.2c-.7.7-1.8 1.2-3.1 1.2s-2.4-.5-3.1-1.2c-.7.7-1.8 1.2-3.1 1.2s-2.4-.5-3.1-1.2c-.7.7-1.8 1.2-3.1 1.2s-2.4-.5-3.1-1.2c-.7.7-1.8 1.2-3.1 1.2s-2.4-.5-3.1-1.2c-.7.7-1.8 1.2-3.1 1.2s-2.4-.5-3.1-1.2c-.7.7-1.8 1.2-3.1 1.2s-2.4-.5-3.1-1.2c-.7.7-1.8 1.2-3.1 1.2s-2.4-.5-3.1-1.2c-.7.7-1.8 1.2-3.1 1.2s-2.4-.5-3.1-1.2c-.7.7-1.8 1.2-3.1 1.2s-2.4-.5-3.1-1.2c-.7.7-1.8 1.2-3.1 1.2s-2.4-.5-3.1-1.2c-.7.7-1.8 1.2-3.1 1.2s-2.4-.5-3.1-1.2c-.7.7-1.8 1.2-3.1 1.2s-2.4-.5-3.1-1.2c-.7.7-1.8 1.2-3.1 1.2s-2.4-.5-3.1-1.2c-.7.7-1.8 1.2-3.1 1.2s-2.4-.5-3.1-1.2c-.7.7-1.8 1.2-3.1 1.2s-2.4-.5-3.1-1.2c-.7.7-1.8 1.2-3.1 1.2s-2.4-.5-3.1-1.2c-.7.7-1.8 1.2-3.1 1.2s-2.4-.5-3.1-1.2c-.7.7-1.8 1.2-3.1 1.2s-2.4-.5-3.1-1.2c-.7.7-1.8 1.2-3.1 1.2s-2.4-.5-3.1-1.2c-.7.7-1.8 1.2-3.1 1.2s-2.4-.5-3.1-1.2c-.7.7-1.8 1.2-3.1 1.2s-2.4-.5-3.1-1.2c-.7.7-1.8 1.2-3.1 1.2s-2.4-.5-3.1-1.2c-.7.7-1.8 1.2-3.1 1.2s-2.4-.5-3.1-1.2c-.7.7-1.8 1.2-3.1 1.2s-2.4-.5-3.1-1.2c-.7.7-1.8 1.2-3.1 1.2s-2.4-.5-3.1-1.2c-.7.7-1.8 1.2-3.1 1.2s-2.4-.8-2.3-1.8c-1.1.1-2.4-.6-2.4-1.6 0-.9.6-1.7 1.6-2.2-1-.5-1.6-1.3-1.6-2.2 0-.9.8-1.7 2.2-1.7-.1-.9 1.3-1.6 2.6-1.6s2.4.5 3.1 1.2c.7-.7 1.8-1.2 3.1-1.2s2.4.5 3.1 1.2c.7-.7 1.8-1.2 3.1-1.2s2.4.5 3.1 1.2c.7-.7 1.8-1.2 3.1-1.2s2.4.5 3.1 1.2c.7-.7 1.8-1.2 3.1-1.2s2.4.5 3.1 1.2c.7-.7 1.8-1.2 3.1-1.2s2.4.5 3.1 1.2c.7-.7 1.8-1.2 3.1-1.2s2.4.5 3.1 1.2c.7-.7 1.8-1.2 3.1-1.2s2.4.5 3.1 1.2c.7-.7 1.8-1.2 3.1-1.2s2.4.5 3.1 1.2c.7-.7 1.8-1.2 3.1-1.2s2.4.5 3.1 1.2c.7-.7 1.8-1.2 3.1-1.2s2.4.5 3.1 1.2c.7-.7 1.8-1.2 3.1-1.2s2.4.5 3.1 1.2c.7-.7 1.8-1.2 3.1-1.2s2.4.5 3.1 1.2c.7-.7 1.8-1.2 3.1-1.2s2.4.5 3.1 1.2c.7-.7 1.8-1.2 3.1-1.2s2.4.5 3.1 1.2c.7-.7 1.8-1.2 3.1-1.2s2.4.5 3.1 1.2c.7-.7 1.8-1.2 3.1-1.2s2.4.5 3.1 1.2c.7-.7 1.8-1.2 3.1-1.2s2.4.5 3.1 1.2c.7-.7 1.8-1.2 3.1-1.2s2.4.5 3.1 1.2c.7-.7 1.8-1.2 3.1-1.2s2.4.5 3.1 1.2c.7-.7 1.8-1.2 3.1-1.2s2.4.5 3.1 1.2c.7-.7 1.8-1.2 3.1-1.2s2.4.5 3.1 1.2c.7-.7 1.8-1.2 3.1-1.2s2.4.5 3.1 1.2c.7-.7 1.8-1.2 3.1-1.2s2.4.5 3.1 1.2c.7-.7 1.8-1.2 3.1-1.2s2.4.5 3.1 1.2c.7-.7 1.8-1.2 3.1-1.2s2.4.5 3.1 1.2c.7-.7 1.8-1.2 3.1-1.2s2.4.5 3.1 1.2c.7-.7 1.8-1.2 3.1-1.2s2.4.5 3.1 1.2c.7-.7 1.8-1.2 3.1-1.2s2.4.5 3.1 1.2c.7-.7 1.8-1.2 3.1-1.2s2.4.5 3.1 1.2c.7-.7 1.8-1.2 3.1-1.2s2.4.5 3.1 1.2c.7-.7 1.8-1.2 3.1-1.2s2.6.9 2.6 1.8c1.1-.1 2.1.7 2.1 1.6 0 .9-.6 1.7-1.6 2.2 1 .5 1.6 1.3 1.6 2.2-.1.8-1.2 1.5-2.6 1.3z"/></g><g><path transform="rotate(90 1070.378 544.666)" class="st1" d="M882.7 469.8H1258v149.8H882.7z"/><path class="st1" d="M1004.2 357h29.8v12.9h-29.8z"/><path transform="rotate(-180 1021.388 437.986)" class="st1" d="M1008.8 431.1h25.1v13.8h-25.1z"/><path transform="rotate(-180 1020.645 441.906)" class="st1" d="M1007.3 438.8h26.6v6.3h-26.6z"/><path transform="rotate(-180 1021.388 407.424)" class="st1" d="M1008.8 400.5h25.1v13.8h-25.1z"/><path transform="rotate(-180 1020.645 411.343)" class="st1" d="M1007.3 408.2h26.6v6.3h-26.6z"/><path transform="rotate(-180 1021.388 376.861)" class="st1" d="M1008.8 369.9h25.1v13.8h-25.1z"/><path transform="rotate(-180 1020.645 380.781)" class="st1" d="M1007.3 377.6h26.6v6.3h-26.6z"/><path transform="rotate(-180 1021.388 499.111)" class="st1" d="M1008.8 492.2h25.1V506h-25.1z"/><path transform="rotate(-180 1020.645 503.031)" class="st1" d="M1007.3 499.9h26.6v6.3h-26.6z"/><path transform="rotate(-180 1021.388 468.549)" class="st1" d="M1008.8 461.6h25.1v13.8h-25.1z"/><path transform="rotate(-180 1020.645 472.468)" class="st1" d="M1007.3 469.3h26.6v6.3h-26.6z"/><path transform="rotate(-180 1021.388 560.236)" class="st1" d="M1008.8 553.3h25.1v13.8h-25.1z"/><path transform="rotate(-180 1020.645 564.156)" class="st1" d="M1007.3 561h26.6v6.3h-26.6z"/><path transform="rotate(-180 1021.388 529.674)" class="st1" d="M1008.8 522.8h25.1v13.8h-25.1z"/><path transform="rotate(-180 1020.645 533.593)" class="st1" d="M1007.3 530.4h26.6v6.3h-26.6z"/><path transform="rotate(-180 1021.388 621.361)" class="st1" d="M1008.8 614.4h25.1v13.8h-25.1z"/><path transform="rotate(-180 1020.645 625.281)" class="st1" d="M1007.3 622.1h26.6v6.3h-26.6z"/><path transform="rotate(-180 1021.388 590.799)" class="st1" d="M1008.8 583.9h25.1v13.8h-25.1z"/><path transform="rotate(-180 1020.645 594.719)" class="st1" d="M1007.3 591.6h26.6v6.3h-26.6z"/><path transform="rotate(-180 1021.388 682.486)" class="st1" d="M1008.8 675.6h25.1v13.8h-25.1z"/><path transform="rotate(-180 1020.645 686.406)" class="st1" d="M1007.3 683.3h26.6v6.3h-26.6z"/><path transform="rotate(-180 1021.388 651.924)" class="st1" d="M1008.8 645h25.1v13.8h-25.1z"/><path transform="rotate(-180 1020.645 655.844)" class="st1" d="M1007.3 652.7h26.6v6.3h-26.6z"/><g><path transform="rotate(-180 1121.81 363.485)" class="st1" d="M1106.9 357h29.8v12.9h-29.8z"/><path class="st1" d="M1106.9 431.1h25.1v13.8h-25.1z"/><path class="st1" d="M1106.9 438.8h26.6v6.3h-26.6zM1106.9 400.5h25.1v13.8h-25.1z"/><path class="st1" d="M1106.9 408.2h26.6v6.3h-26.6zM1106.9 369.9h25.1v13.8h-25.1z"/><path class="st1" d="M1106.9 377.6h26.6v6.3h-26.6zM1106.9 492.2h25.1V506h-25.1z"/><path class="st1" d="M1106.9 499.9h26.6v6.3h-26.6zM1106.9 461.6h25.1v13.8h-25.1z"/><path class="st1" d="M1106.9 469.3h26.6v6.3h-26.6zM1106.9 553.3h25.1v13.8h-25.1z"/><path class="st1" d="M1106.9 561h26.6v6.3h-26.6zM1106.9 522.8h25.1v13.8h-25.1z"/><path class="st1" d="M1106.9 530.4h26.6v6.3h-26.6zM1106.9 614.4h25.1v13.8h-25.1z"/><path class="st1" d="M1106.9 622.1h26.6v6.3h-26.6zM1106.9 583.9h25.1v13.8h-25.1z"/><path class="st1" d="M1106.9 591.6h26.6v6.3h-26.6zM1106.9 675.6h25.1v13.8h-25.1z"/><path class="st1" d="M1106.9 683.3h26.6v6.3h-26.6zM1106.9 645h25.1v13.8h-25.1z"/><path class="st1" d="M1106.9 652.7h26.6v6.3h-26.6z"/></g><g><path transform="rotate(-180 1070.435 385.824)" class="st1" d="M1065.1 381.2h10.6v9.2h-10.6z"/><path transform="rotate(-180 1070.435 419.456)" class="st1" d="M1065.1 414.8h10.6v9.2h-10.6z"/><path transform="rotate(-180 1070.435 453.087)" class="st1" d="M1065.1 448.5h10.6v9.2h-10.6z"/><path transform="rotate(-180 1070.435 486.718)" class="st1" d="M1065.1 482.1h10.6v9.2h-10.6z"/><path transform="rotate(-180 1070.435 520.349)" class="st1" d="M1065.1 515.7h10.6v9.2h-10.6z"/><path transform="rotate(-180 1070.435 553.98)" class="st1" d="M1065.1 549.4h10.6v9.2h-10.6z"/><path transform="rotate(-180 1070.435 587.611)" class="st1" d="M1065.1 583h10.6v9.2h-10.6z"/><path transform="rotate(-180 1070.435 621.243)" class="st1" d="M1065.1 616.6h10.6v9.2h-10.6z"/><path transform="rotate(-180 1070.435 654.874)" class="st1" d="M1065.1 650.3h10.6v9.2h-10.6z"/><path transform="rotate(-180 1070.435 688.505)" class="st1" d="M1065.1 683.9h10.6v9.2h-10.6z"/></g><path class="st1" d="M1034 732.3h33.5V331.8l-33.5 24.9zM1106.9 732.3h-33.5V331.8l33.5 24.9z"/></g><g><path class="st0" d="M.7 563.7H116v18.9H.7M.7 695.1h457.5v3.1H.7M.7 582.6h461.2l-11.4 9.7H.7M314.8 472.8H136.5l-2.6-8.3h183.4zM295.9 443.4H155.3l-1.9-9.6h144.5z"/><path class="st13" d="M114 597.3v-13.5M339 583.8v13.5"/><path class="st0" d="M116 559.2h219.2v13H116zM113.8 555.3h223.7v3.8H113.8zM123.5 546h204.3v4.2H123.5zM133.3 526.4h184.6V546H133.3zM159.9 443.4h131.4v21.1H159.9zM207 363h37.2v14.4H207z"/><path class="st0" d="M215.5 353h20.4v10.1h-20.4zM128 550.2h195.3v5.2H128zM170.5 433.6c0-39 31.6-61.9 55.3-61.9s55 22.7 55 61.9M216.1 352.9c0-6.7 5.4-10.7 9.5-10.7s9.5 3.9 9.5 10.7"/><circle class="st0" cx="225.6" cy="339.5" r="2.4"/><circle class="st0" cx="304" cy="588" r="2.9"/><circle class="st0" cx="274.5" cy="588" r="2.9"/><circle class="st0" cx="178.5" cy="588" r="2.9"/><circle class="st0" cx="149" cy="588" r="2.9"/><circle class="st0" cx="333.5" cy="588" r="2.9"/><circle class="st0" cx="119.5" cy="588.3" r="2.9"/><path class="st0" d="M183.5 592.2V584M266.8 584v8.2M339 592.3h111.6v13.9H339zM.7 592.3h113.5v14H.7M335.2 563.7h114.9v18.9H335.2z"/><circle class="st0" cx="376.9" cy="595.9" r="1.9"/><circle class="st0" cx="436.3" cy="595.9" r="1.9"/><circle class="st0" cx="76.1" cy="595.9" r="1.9"/><circle class="st0" cx="18.9" cy="595.9" r="1.9"/><path class="st0" d="M12.9 606.6h11v88.5h-11z"/><path class="st0" d="M11.3 685h14v10.1h-14zM12.9 614.7h10.7l4.2-10.9h-19zM70.5 606.6h11v88.5h-11z"/><path class="st0" d="M68.8 685h14v10.1h-14zM70.5 614.7h10.7l4.2-10.9H66.3zM136.4 472.8h178.4v50.5H136.4z"/><path class="st0" d="M302.4 474.4h6v48.9h-6z"/><path class="st0" d="M301.5 517.8h7.7v5.6h-7.7zM302.4 478.9h5.8l2.3-6.1h-10.4zM143.2 474.4h6v48.9h-6z"/><path class="st0" d="M142.3 517.8h7.7v5.6h-7.7zM143.2 478.9h5.9l2.2-6.1h-10.4zM172.6 474.4h6v48.9h-6z"/><path class="st0" d="M171.7 517.8h7.7v5.6h-7.7zM172.6 478.9h5.9l2.3-6.1h-10.4zM206.1 474.4h6v48.9h-6z"/><path class="st0" d="M205.2 517.8h7.7v5.6h-7.7zM206.1 478.9h5.8l2.3-6.1h-10.4zM239.5 474.4h6v48.9h-6z"/><path class="st0" d="M238.6 517.8h7.7v5.6h-7.7zM239.5 478.9h5.9l2.3-6.1h-10.5zM272.9 474.4h6v48.9h-6z"/><path class="st0" d="M272 517.8h7.7v5.6H272zM273 478.9h5.8l2.3-6.1h-10.4z"/><g><path class="st0" d="M372.2 606.6h11v88.5h-11z"/><path class="st0" d="M370.5 685h14v10.1h-14zM372.2 614.7h10.7l4.2-10.9H368z"/></g><g><path class="st0" d="M430.5 606.6h11v88.5h-11z"/><path class="st0" d="M428.9 685h14v10.1h-14zM430.6 614.7h10.7l4.2-10.9h-19.1z"/></g><path class="st0" d="M114 592.3h225v13.9H114z"/><g><path class="st0" d="M221.4 602h10.5v84.4h-10.5z"/><path class="st0" d="M219.8 676.7h13.4v9.6h-13.4zM221.4 609.7h10.2l4-10.4h-18.2z"/></g><g><path class="st0" d="M274.8 602h10.5v84.4h-10.5z"/><path class="st0" d="M273.2 676.7h13.4v9.6h-13.4zM274.8 609.7H285l4-10.4h-18.2z"/></g><g><path class="st0" d="M168 602h10.5v84.4H168z"/><path class="st0" d="M166.4 676.7h13.4v9.6h-13.4zM168 609.7h10.2l4-10.4H164z"/></g><g><path class="st0" d="M114.6 602h10.5v84.4h-10.5z"/><path class="st0" d="M113 676.7h13.4v9.6H113zM114.6 609.7h10.2l4-10.4h-18.2z"/></g><path class="st0" d="M130.9 523.3h189.4v3.1H130.9zM.7 718.1h106.4v14.2H.7M343.5 718.1h106.9v14.2H343.5z"/><g><path class="st0" d="M26.6 701.2h10.3v14.2H26.6zM85 701.2h10.3v14.2H85z"/></g><g><path class="st0" d="M357.1 701.5h10.3v14.2h-10.3zM417.6 701.4h10.3v14.2h-10.3z"/></g><g><path class="st0" d="M167 448.9h9.1v11.7H167zM194 448.9h9.1v11.7H194zM221 448.9h9.1v11.7H221zM248.1 448.9h9.1v11.7h-9.1zM275.1 448.9h9.1v11.7h-9.1z"/></g><g><path class="st0" d="M226.5 377.4v45.1"/><path class="st13" d="M211.6 378.7s-15.5 7.1-15.5 42.1M239.6 378.7s15.5 7.1 15.5 42.1"/></g><g><path class="st0" d="M328.2 602h10.5v84.4h-10.5z"/><path class="st0" d="M326.6 676.7H340v9.6h-13.4zM328.2 609.7h10.2l4-10.4h-18.2z"/></g><g><path class="st0" d="M106.5 686h23.8v46.3h-23.8zM320.9 686h23.8v46.3h-23.8z"/></g><g><path class="st0" d="M137.4 686.3h176.4v15.9H137.4z"/><path class="st0" d="M130.3 701.7h190.6v16.1H130.3z"/><path class="st0" d="M122.5 717.2h206.2v15.1H122.5z"/></g><path class="st0" d="M225.3 530.4L355 584H96.2z"/><path class="st24" d="M450.4 698.1V718"/><path class="st13" d="M114.1 599.3H.7"/><path class="st24" d="M450.5 599.3H337.1"/></g><g><path class="st25" d="M536.7 463.3l7.3-40.7 3.3-18.3 3.2 18.3 7.3 40.7M560.3 474.5v-11.1h-26.1v11.1M562.3 490v-15.4h-30.1V490M567.7 505.5V490h-40.9v15.5M571.8 529.7v-24.1h-49.1v24.1M596.4 567.2h-21.6M575.2 607H596M596 585.7h-20.8M575.1 670.7h21M596.1 649.3h-21M596.1 617.6h-21"/><circle class="st25" cx="585.6" cy="596" r="5.7"/><circle class="st25" cx="585.6" cy="659.2" r="5.7"/><path class="st25" d="M592.5 710.7h-13.8v-21.5s0-6.6 6.8-6.6c6.6 0 7 6.5 7 6.5v21.6zM590.6 642h-10v-15.6s0-4.8 4.9-4.8c4.8 0 5.1 4.7 5.1 4.7V642zM519.7 567.2h-21.6M498.5 607h20.9M519.4 585.7h-20.9M498.4 670.7h21M519.4 649.3h-21M519.4 617.6h-20.9"/><circle class="st25" cx="508.9" cy="596" r="5.7"/><circle class="st25" cx="508.9" cy="659.2" r="5.7"/><path class="st25" d="M515.8 710.7H502v-21.5s0-6.6 6.8-6.6c6.6 0 7 6.5 7 6.5v21.6zM513.9 642h-10v-15.6s0-4.8 4.9-4.8c4.8 0 5.1 4.7 5.1 4.7V642zM519.6 529.7h55.3v201.5h-55.3z"/><path class="st25" d="M526.9 536.4h40.6v194.4h-40.6z"/><circle class="st25" cx="547.3" cy="402.9" r="2.3"/><path class="st25" d="M485.9 723h122.7v9.3H485.9z"/><path class="st26" d="M526.8 648.9h40.8M526.8 583.2h40.8M526.8 712.8h40.8"/><path class="st25" d="M539.2 723c0-4.5 3.6-8.1 8.1-8.1s8.1 3.6 8.1 8.1h-16.2zM545.7 392.5v6.5s0 1.5 1.6 1.5 1.4-1.6 1.4-1.6v-6.3s.2-2.1-1.4-2.1c-1.6-.1-1.6 2-1.6 2zM542.3 386.2l3.3 1.9c.3.2.1.6-.2.6l-3.9-.5.8-2z"/><circle class="st25" cx="541.5" cy="387" r="1.1"/><g><path class="st25" d="M449.6 538.3h48.8v194h-48.8zM474 434.7l3.2 18 7.3 40.1h-21.1l7.3-40.1z"/><path class="st25" d="M451.3 523.2h45.4v15.1h-45.4zM458.9 492.8H489v15h-30.1zM455.5 507.8h37v15.4h-37z"/><path class="st27" d="M486.6 731.9V544.7M461.3 544.7v187.2"/><path class="st25" d="M479 579.8h-10v-16.9s0-4.8 4.9-4.8c4.8 0 5.1 4.7 5.1 4.7v17zM479 611.9h-10V595s0-4.8 4.9-4.8c4.8 0 5.1 4.7 5.1 4.7v17zM479 644h-10v-16.9s0-4.8 4.9-4.8c4.8 0 5.1 4.7 5.1 4.7v17zM479 676.1h-10v-16.9s0-4.8 4.9-4.8c4.8 0 5.1 4.7 5.1 4.7v17zM479 708.3h-10v-16.9s0-4.8 4.9-4.8c4.8 0 5.1 4.7 5.1 4.7v17z"/><path class="st28" d="M461.3 584.7h25.3M461.3 617h25.3M461.3 649.3h25.3M461.3 681.6h25.3M461.3 713.9h25.3"/><path class="st26" d="M449.5 544.6h48.8"/><g><path class="st25" d="M596.2 538.3H645v194h-48.8zM620.6 434.7l3.3 18 7.3 40.1h-21.1l7.3-40.1z"/><path class="st25" d="M597.9 523.2h45.4v15.1h-45.4zM605.6 492.8h30.1v15h-30.1zM602.1 507.8h37v15.4h-37z"/><path class="st27" d="M633.3 731.9V544.7M608 544.7v187.2"/><path class="st25" d="M625.6 579.8h-10v-16.9s0-4.8 4.9-4.8c4.8 0 5.1 4.7 5.1 4.7v17zM625.6 611.9h-10V595s0-4.8 4.9-4.8c4.8 0 5.1 4.7 5.1 4.7v17zM625.6 644h-10v-16.9s0-4.8 4.9-4.8c4.8 0 5.1 4.7 5.1 4.7v17zM625.6 676.1h-10v-16.9s0-4.8 4.9-4.8c4.8 0 5.1 4.7 5.1 4.7v17zM625.6 708.3h-10v-16.9s0-4.8 4.9-4.8c4.8 0 5.1 4.7 5.1 4.7v17z"/><path class="st28" d="M608 584.7h25.3M608 617h25.3M608 649.3h25.3M608 681.6h25.3M608 713.9h25.3"/><path class="st26" d="M596.2 544.6H645"/></g></g><path class="st25" d="M534.6 536.4h25.3v176.5h-25.3z"/><g><path class="st25" d="M554.2 709.2h-13.8v-46.4s0-6.6 6.8-6.6c6.6 0 7 6.5 7 6.5v46.5zM554.2 644.8h-13.8v-46.4s0-6.6 6.8-6.6c6.6 0 7 6.5 7 6.5v46.5zM554.2 578.8h-13.8v-29.5s0-6.6 6.8-6.6c6.6 0 7 6.5 7 6.5v29.6z"/></g><path class="st28" d="M519.6 536.4h55.2"/><circle class="st25" cx="547.3" cy="388.4" r="1.5"/></g><g><path class="st9" d="M1318.3 734.9"/><path class="st29" d="M1318.2 733.4c-.3-5.1-.4-15.6 6.6-15.6 7.9 0 8.5 9.4 8.5 11.7 0 1-.1 1.6-.1 2.1"/><path class="st9" d="M1332.9 732.3"/><path class="st30" d="M1332.5 730.9c-.1-.5-.2-1.1-.2-1.8 0-1.9.7-11.3 7.7-11.3 6.8 0 7.8 8.2 7.3 15.5"/><path class="st9" d="M1347.3 734.1"/><g><path class="st9" d="M1315.8 723"/><path class="st31" d="M1316 721.5c.4-4.1 2-8.3 8.1-8.3 6.3 0 8.5 3.6 8.7 6.4"/><path class="st9" d="M1332.8 720.3"/><path class="st32" d="M1332.9 718.8c.4-2.1 1.9-5.8 8.1-5.8 7.3 0 8.5 6.7 8.7 9"/><path class="st9" d="M1349.7 722.8"/></g><g><path class="st9" d="M1333.6 712.7"/><path class="st33" d="M1334.2 711.4c1.2-2.3 3.2-4.1 5.9-4.6"/><path class="st9" d="M1340.7 706.7"/></g><g><path class="st9" d="M1325.4 709.2"/><path class="st34" d="M1326.8 709.6c2.7.8 4.7 2 5.7 4.8"/><path class="st9" d="M1332.6 715.1"/></g></g><g><path class="st9" d="M1358 734.9"/><path class="st29" d="M1358 733.4c-.3-5.1-.4-15.6 6.6-15.6 7.9 0 8.5 9.4 8.5 11.7 0 1-.1 1.6-.1 2.1"/><path class="st9" d="M1372.7 732.3"/><path class="st30" d="M1372.2 730.9c-.1-.5-.2-1.1-.2-1.8 0-1.9.7-11.3 7.7-11.3 6.8 0 7.8 8.2 7.3 15.5"/><path class="st9" d="M1387 734.1"/><g><path class="st9" d="M1355.6 723"/><path class="st31" d="M1355.7 721.5c.4-4.1 2-8.3 8.1-8.3 6.3 0 8.5 3.6 8.7 6.4"/><path class="st9" d="M1372.5 720.3"/><path class="st32" d="M1372.6 718.8c.4-2.1 1.9-5.8 8.1-5.8 7.3 0 8.5 6.7 8.7 9"/><path class="st9" d="M1389.5 722.8"/></g><g><path class="st9" d="M1373.4 712.7"/><path class="st33" d="M1373.9 711.4c1.2-2.3 3.2-4.1 5.9-4.6"/><path class="st9" d="M1380.5 706.7"/></g><g><path class="st9" d="M1365.2 709.2"/><path class="st34" d="M1366.6 709.6c2.7.8 4.7 2 5.7 4.8"/><path class="st9" d="M1372.4 715.1"/></g></g><g><path class="st9" d="M1397.8 734.9"/><path class="st29" d="M1397.7 733.4c-.3-5.1-.4-15.6 6.6-15.6 7.9 0 8.5 9.4 8.5 11.7 0 1-.1 1.6-.1 2.1"/><path class="st9" d="M1412.5 732.3"/><path class="st30" d="M1412 730.9c-.1-.5-.2-1.1-.2-1.8 0-1.9.7-11.3 7.7-11.3 6.8 0 7.8 8.2 7.3 15.5"/><path class="st9" d="M1426.8 734.1"/><g><path class="st9" d="M1395.4 723"/><path class="st31" d="M1395.5 721.5c.4-4.1 2-8.3 8.1-8.3 6.3 0 8.5 3.6 8.7 6.4"/><path class="st9" d="M1412.3 720.3"/><path class="st32" d="M1412.4 718.8c.4-2.1 1.9-5.8 8.1-5.8 7.3 0 8.5 6.7 8.7 9"/><path class="st9" d="M1429.3 722.8"/></g><g><path class="st9" d="M1413.2 712.7"/><path class="st33" d="M1413.7 711.4c1.2-2.3 3.2-4.1 5.9-4.6"/><path class="st9" d="M1420.3 706.7"/></g><g><path class="st9" d="M1405 709.2"/><path class="st34" d="M1406.3 709.6c2.7.8 4.7 2 5.7 4.8"/><path class="st9" d="M1412.2 715.1"/></g></g><g><defs><path id="SVGID_1_" d="M1025.4 722.4h106.5v21.1h-106.5z"/></defs><clipPath id="SVGID_2_"><use xlink:href="#SVGID_1_" overflow="visible"/></clipPath><path d="M1146.2 737.6c-.5.8-1.7 1.1-2.9 1.1s-2.2-.4-2.9-1.1c-.6.7-1.7 1.1-2.9 1.1s-2.2-.4-2.9-1.1c-.6.7-1.7 1.1-2.9 1.1s-2.2-.4-2.9-1.1c-.6.7-1.7 1.1-2.9 1.1s-2.2-.4-2.9-1.1c-.6.7-1.7 1.1-2.9 1.1s-2.2-.4-2.9-1.1c-.6.7-1.7 1.1-2.9 1.1s-2.2-.4-2.9-1.1c-.6.7-1.7 1.1-2.9 1.1s-2.2-.4-2.9-1.1c-.6.7-1.7 1.1-2.9 1.1s-2.2-.4-2.9-1.1c-.6.7-1.7 1.1-2.9 1.1s-2.2-.4-2.9-1.1c-.6.7-1.7 1.1-2.9 1.1s-2.2-.4-2.9-1.1c-.6.7-1.7 1.1-2.9 1.1s-2.2-.4-2.9-1.1c-.6.7-1.7 1.1-2.9 1.1s-2.2-.4-2.9-1.1c-.6.7-1.7 1.1-2.9 1.1s-2.2-.4-2.9-1.1c-.6.7-1.7 1.1-2.9 1.1s-2.2-.4-2.9-1.1c-.6.7-1.7 1.1-2.9 1.1s-2.2-.4-2.9-1.1c-.6.7-1.7 1.1-2.9 1.1s-2.2-.4-2.9-1.1c-.6.7-1.7 1.1-2.9 1.1s-2.2-.4-2.9-1.1c-.6.7-1.7 1.1-2.9 1.1s-2.2-.4-2.9-1.1c-.6.7-1.7 1.1-2.9 1.1s-2.2-.4-2.9-1.1c-.6.7-1.7 1.1-2.9 1.1s-2.5-.2-2.9-1.1c-1.1-.2-1.5-1.2-1.5-2.1 0-.9.6-1.6 1.5-2.1-.9-.5-1.5-1.2-1.5-2.1 0-.9.8-1.5 1.8-1.7.2-.7 1.4-1.5 2.6-1.5 1.2 0 2.2.4 2.9 1.1.6-.7 1.7-1.1 2.9-1.1s2.2.4 2.9 1.1c.6-.7 1.7-1.1 2.9-1.1s2.2.4 2.9 1.1c.6-.7 1.7-1.1 2.9-1.1s2.2.4 2.9 1.1c.6-.7 1.7-1.1 2.9-1.1s2.2.4 2.9 1.1c.6-.7 1.7-1.1 2.9-1.1s2.2.4 2.9 1.1c.6-.7 1.7-1.1 2.9-1.1s2.2.4 2.9 1.1c.6-.7 1.7-1.1 2.9-1.1s2.2.4 2.9 1.1c.6-.7 1.7-1.1 2.9-1.1s2.2.4 2.9 1.1c.6-.7 1.7-1.1 2.9-1.1s2.2.4 2.9 1.1c.6-.7 1.7-1.1 2.9-1.1s2.2.4 2.9 1.1c.6-.7 1.7-1.1 2.9-1.1s2.2.4 2.9 1.1c.6-.7 1.7-1.1 2.9-1.1s2.2.4 2.9 1.1c.6-.7 1.7-1.1 2.9-1.1s2.2.4 2.9 1.1c.6-.7 1.7-1.1 2.9-1.1s2.2.4 2.9 1.1c.6-.7 1.7-1.1 2.9-1.1s2.2.4 2.9 1.1c.6-.7 1.7-1.1 2.9-1.1s2.2.4 2.9 1.1c.6-.7 1.7-1.1 2.9-1.1s2.2.4 2.9 1.1c.6-.7 1.7-1.1 2.9-1.1s2.2.4 2.9 1.1c.6-.7 1.7-1.1 2.9-1.1s2.6.4 2.9 1.1c1.3.4 1.5 1.2 1.5 2.1 0 .9-.6 1.6-1.5 2.1.9.5 1.5 1.2 1.5 2.1 0 .9-.4 2-1.5 2.1z" clip-path="url(#SVGID_2_)" fill="#fff" stroke="#a7988c" stroke-width=".75" stroke-linecap="round" stroke-linejoin="round" stroke-miterlimit="10"/></g><g><path class="st0" d="M1142.5 718.6h6.1v17.7h-6.1z"/><path class="st0" d="M1164.6 706c0 10.5-8.5 19-19 19s-19-8.5-19-19 19-32.6 19-32.6 19 22.1 19 32.6z"/></g><path class="st0" d="M1159.4 728.3c-1.4-2.2-4-3.6-6.9-3.6-3.9 0-7.2 2.6-7.9 6-2.9.3-5.2 2.2-5.2 4.5 0 2.5 2.7 4.5 5.9 4.5H1158.6c3.7 0 6.6-2.6 6.6-5.7.1-3-2.5-5.4-5.8-5.7zM1134.8 728.4c0-6.2-5.1-11.2-11.3-11.2-4.7 0-8.8 2.9-10.5 7h-.4c-4.3 0-7.8 3.4-7.8 7.7s3.5 7.7 7.8 7.7c.5 0 10.2.1 10.9.1.8 0 1.5-.1 2.3-.2 5.1-1.2 9-5.7 9-11.1z"/><path class="st0" d="M1134.3 728.1c-1.4-2.2-4-3.6-6.9-3.6-3.9 0-7.2 2.6-7.9 6-2.9.3-5.2 2.2-5.2 4.5 0 2.5 2.7 4.5 5.9 4.5H1133.5c3.7 0 6.6-2.6 6.6-5.7.2-3-2.4-5.4-5.8-5.7z"/><g><path class="st25" d="M777.9 611.1h220.9v121.2H777.9z"/><path class="st25" d="M954.9 732.3h-37.6v-31.1c0-9.9 8-18 18-18h1.5c10 0 18.2 8.1 18.2 18.2v30.9zM859.4 732.3h-37.6v-31.1c0-9.9 8-18 18-18h1.5c10 0 18.2 8.1 18.2 18.2v30.9z"/><path class="st25" d="M920.2 701.6c0-8.8 7.1-15.9 15.9-15.9s15.9 7.1 15.9 15.9h-31.8zM824.7 701.6c0-8.8 7.1-15.9 15.9-15.9s15.9 7.1 15.9 15.9h-31.8zM819.5 732.3h-37.6v-31.1c0-9.9 8-18 18-18h1.5c10 0 18.2 8.1 18.2 18.2v30.9zM994.8 732.3h-37.6v-31.1c0-9.9 8-18 18-18h1.5c10 0 18.2 8.1 18.2 18.2v30.9z"/><path class="st25" d="M785 705.4h31.3v22.5H785zM960.2 705.4h31.6v22.5h-31.6zM960.1 701.6c0-8.8 7.1-15.9 15.9-15.9s15.9 7.1 15.9 15.9h-31.8zM784.8 701.6c0-8.8 7.1-15.9 15.9-15.9s15.9 7.1 15.9 15.9h-31.8zM777.9 611.1h220.9v7.6H777.9zM777.9 673.3h220.9v7.6H777.9zM911.3 705.4h7.1v26.9h-7.1zM858.3 705.4h7.1v26.9h-7.1zM899.5 705.4h8.8v26.9h-8.8z"/><path class="st25" d="M890.4 705.4h9.2v26.9h-9.2zM877.4 705.4h8.8v26.9h-8.8z"/><path class="st25" d="M868.3 705.4h9.2v26.9h-9.2z"/><g><path class="st25" d="M824.7 705.5h15.6v26.8h-15.6z"/><path class="st25" d="M840.3 705.5h15.6v26.8h-15.6zM936.1 705.5h15.8v26.8h-15.8zM920.7 705.5h15.4v26.8h-15.4z"/></g><path class="st25" d="M817.9 701.6h4.9v3.2h-4.9zM777.9 701.6h4.9v3.2h-4.9zM993.9 701.6h4.9v3.2h-4.9zM953.6 701.6h4.9v3.2h-4.9zM767.5 611.7H1009l-13.4-14.6H779.9zM855.8 705.4h65l-3.6-5.7h-58.1z"/><g><path class="st25" d="M915.3 690.3s1.3.2 2.7.2 3-1.3 3.2-1.7c0 0 .5.5.5 1.2s-1 1.5-1 1.5 3.1 1.9 3.1 4.8c0 2.8-1.4 3.6-1.4 3.6M861.3 690.3s-1.3.2-2.7.2c-1.4 0-3-1.3-3.2-1.7 0 0-.5.5-.5 1.2s1 1.5 1 1.5-3.1 1.9-3.1 4.8c0 2.8 1.4 3.6 1.4 3.6M885.2 684.4c-1-.9-1.6-2.2-1.6-3.6 0-2.6 2.1-4.8 4.7-4.8s4.7 2.1 4.7 4.8c0 1.5-.6 2.8-1.7 3.7"/><path class="st25" d="M890.1 682.1v-1.9h-1v-1.9h-1.6v1.9h-1v1.9h-1.3v2.3h6.2v-2.3zM888 684.5c19.4 0 26.6 3.8 26.6 3.8l.3 2.9c5.4 1.3 6.8 4.5 6.8 7.1 0 2.6-1.8 5-5.2 5s-5.4-2.6-5.4-5.1 1.7-4.3 3.8-4.3 3.5 1.4 3.5 3.2-1.3 2.5-1.8 2.5c-.6 0-.9-.5-.9-.5s.8-.3.8-1.2c0-.8-.9-1-1.3-1-.5 0-1.4.3-1.4 1.6"/><path class="st25" d="M888.7 684.5c-19.4 0-26.6 3.8-26.6 3.8l-.3 2.9c-5.4 1.3-6.8 4.5-6.8 7.1 0 2.6 1.8 5 5.2 5s5.4-2.6 5.4-5.1-1.7-4.3-3.8-4.3-3.5 1.4-3.5 3.2 1.3 2.5 1.8 2.5c.6 0 .9-.5.9-.5s-.8-.3-.8-1.2c0-.8.9-1 1.3-1s1.4.3 1.4 1.6"/><g><path class="st25" d="M869.1 693.2c-.8.2-1.3.1-1.6-1.5-.3-1.4-.1-1.9.6-2.1.6-.1 1 0 2.2 1 .1 0 .2-.1.2-.1-.2-.6-.3-1.2-.5-1.8-.1 0-.2 0-.3.1-.1.1-.1.2-.2.3-.4-.1-.8-.2-1.6 0-1.8.4-2.8 1.8-2.5 3 .3 1.3 1.8 2 3.5 1.6 1-.2 1.7-.8 2.1-1.5-.1-.1-.3-.1-.4-.2-.3.6-.8 1-1.5 1.2zM881.4 687.3l-3 .3v.3c.2 0 .4.1.7.1l.3 3.6c-.2.1-.4.2-.6.2-.2 0-.3-.1-.5-.1l-2.7-3.9c-.4.1-.8.1-1.2.2-.6 1.5-1.2 3-1.7 4.5l-.6.3v.3l2.1-.3v-.3c-.2 0-.5-.1-.7-.1.1-.4.2-.7.3-1.1.6-.1 1.2-.2 1.9-.3.2.3.4.6.6 1l-.6.3v.3c1-.1 2-.3 3-.4h.1l3-.3v-.3c-.2-.1-.4-.1-.7-.2 0-.4-.1-.9-.1-1.3h.1c.4.1.8.1 1.1.1 1.1-.1 1.9-.6 1.9-1.6.1-.9-.9-1.4-2.7-1.3zm-7.3 3.4c.2-.5.3-1 .5-1.5.3.4.6.9.9 1.3-.5 0-.9.1-1.4.2zm7.3-1h-.3c0-.6-.1-1.3-.1-1.9h.3c.7-.1.9.1 1 .9 0 .8-.2 1-.9 1zM885.7 687.3c.3.1.5.1.8.2 0 1.2 0 2.4.1 3.6-.2.1-.5.1-.7.2v.3h3.3v-.3c-.2-.1-.5-.1-.7-.2v-3.6c.2-.1.5-.1.8-.2v-.3h-3.4c-.2.2-.2.3-.2.3zM891 687.1c-.1.6-.1 1.3-.2 1.9.1 0 .2 0 .3.1l1.2-1.5c.2 0 .4-.1.7-.1-.1 1.3-.1 2.5-.2 3.8-.3.1-.5.1-.8.2v.3c1.1 0 2.2.1 3.3.2v-.3c-.2-.1-.5-.2-.7-.3.1-1.3.2-2.5.3-3.8.2.1.4.1.6.2.3.5.7 1.1 1 1.6h.3v-2c-2-.2-3.9-.3-5.8-.3zM901.7 687.9c-1.7-.2-3.4.6-3.5 1.9-.1 1.3 1.2 2.5 2.9 2.7 1.6.2 3.3-.5 3.5-1.8.2-1.2-1.2-2.5-2.9-2.8zm-.6 4.2c-.8-.1-1.1-.5-.9-2 .2-1.5.5-1.8 1.5-1.7.9.1 1.2.5.9 2-.3 1.5-.7 1.8-1.5 1.7zM910.7 692.4l-1.5 1.2c-.5-.1-.9-.1-1.4-.2.3-1.2.5-2.4.8-3.7h.7c0-.1 0-.2.1-.3-1.1-.2-2.1-.5-3.2-.7 0 .1 0 .2-.1.3l.6.3c-.2 1.2-.5 2.4-.7 3.5-.2 0-.4.1-.6.1 0 .1 0 .2-.1.3 1.6.3 3.3.7 4.9 1.1.2-.6.5-1.2.7-1.8-.1-.1-.1-.1-.2-.1z"/></g><g><path class="st36" d="M875.4 695.6c.1.6.3 1.2.4 1.8-.2 0-.4.1-.6.2-.1-.6-.3-1.2-.4-1.8-.5.1-1 .3-1.6.4 0-.1-.1-.2-.1-.3 1.3-.3 2.5-.6 3.8-.9 0 .1 0 .2.1.3-.5 0-1 .2-1.6.3zM881.2 696.4c0-.3-.1-.6-.1-.9-.8.1-1.6.2-2.4.4.1.3.1.6.2.9-.2 0-.4.1-.7.1-.1-.7-.3-1.4-.4-2.1.2 0 .5-.1.7-.1.1.3.1.6.2.9.8-.1 1.6-.3 2.5-.4 0-.3-.1-.6-.1-.9.2 0 .5-.1.7-.1.1.7.2 1.4.2 2.1-.4.1-.6.1-.8.1zM882.9 696.2c-.1-.7-.1-1.4-.2-2.2 1.1-.1 2.2-.2 3.3-.2v.3c-.9 0-1.8.1-2.6.2v.6c.7-.1 1.3-.1 2-.1v.3c-.7 0-1.3.1-2 .1 0 .2 0 .4.1.6.9-.1 1.7-.1 2.6-.2v.3c-1.1.1-2.2.2-3.2.3zM890.3 696c-.1-.2-.3-.4-.5-.6h-2.1c-.1.2-.3.4-.4.5h-.7c.6-.7 1.3-1.5 1.9-2.2h.6c.7.7 1.3 1.5 1.9 2.2-.2.1-.4.1-.7.1zm-1.5-1.8c-.3.3-.5.6-.8.9h1.6c-.2-.3-.5-.6-.8-.9zM893.1 694.3c-.1.6-.1 1.2-.2 1.8-.2 0-.4 0-.7-.1 0-.6.1-1.2.1-1.8-.5 0-1.1-.1-1.6-.1v-.3l3.9.3v.3c-.4 0-.9 0-1.5-.1zM898.3 696.9c-.2 0-.2-.2-.2-.4v-.2c0-.2-.1-.3-.8-.4-.4-.1-.8-.1-1.3-.2 0 .3-.1.6-.1.9-.2 0-.4-.1-.7-.1l.3-2.1c.7.1 1.3.2 2 .3 1.1.2 1.5.5 1.5.9 0 .2-.3.4-1 .4.7.2.8.4.8.6v.2c0 .1 0 .3.1.4-.2-.2-.4-.3-.6-.3zm0-1.6c0-.2-.2-.3-.7-.4-.5-.1-.9-.1-1.4-.2 0 .2-.1.4-.1.6.5.1 1 .1 1.4.2.5.1.8 0 .8-.2 0 .1 0 .1 0 0zM899.6 697.1c.1-.7.3-1.4.4-2.1 1.1.2 2.2.5 3.3.8 0 .1-.1.2-.1.3-.9-.2-1.7-.4-2.6-.6 0 .2-.1.4-.1.5.7.1 1.3.3 2 .5 0 .1-.1.2-.1.3-.6-.2-1.3-.3-1.9-.5 0 .2-.1.4-.1.6.8.2 1.7.4 2.5.6 0 .1-.1.2-.1.3-1.1-.2-2.1-.4-3.2-.7z"/></g></g><g><path class="st25" d="M861.4 662.4h3.9v8.2h-3.9zM861.1 628.9h4.6v13.9h-4.6zM911 628.9h4.6v13.9H911zM911.3 662.4h3.9v8.2h-3.9z"/><circle class="st25" cx="863.3" cy="659.8" r="2.5"/><circle class="st25" cx="913.3" cy="659.8" r="2.5"/></g><g><path class="st25" d="M899.6 653.1c-.3-3.3-2.8-5.9-6-5.9-2.4 0-4.4 1.5-5.4 3.6-1-2.2-3-3.6-5.4-3.6-3.1 0-5.7 2.6-6 5.9h-6.2v17.8h35.2v-17.8h-6.2zM888.3 650.7v20.1M899.6 653v17.8M876.9 653v17.8"/><path class="st28" d="M875.8 653.1h24.6"/></g><g><path class="st25" d="M806.3 627.2c-.2-3.7-3.2-6.6-6.9-6.6-3.6 0-6.6 2.9-6.9 6.6h-6.3v17.3h26.4v-17.3h-6.3z"/><path class="st28" d="M792.5 644.5v-17.3h13.9v17.3"/><path class="st25" d="M806.3 653.1c-.2-3.7-3.2-6.6-6.9-6.6-3.6 0-6.6 2.9-6.9 6.6h-6.3v17.3h26.4v-17.3h-6.3z"/><path class="st28" d="M792.5 670.4v-17.3h13.9v17.3"/><g><path class="st25" d="M844.9 627.2c-.2-3.7-3.2-6.6-6.9-6.6s-6.6 2.9-6.9 6.6h-6.3v17.3h26.4v-17.3h-6.3z"/><path class="st28" d="M831.1 644.5v-17.3h13.8v17.3"/></g><g><path class="st25" d="M844.9 653.1c-.2-3.7-3.2-6.6-6.9-6.6s-6.6 2.9-6.9 6.6h-6.3v17.3h26.4v-17.3h-6.3z"/><path class="st28" d="M831.1 670.4v-17.3h13.8v17.3"/></g><g><path class="st25" d="M945.3 627.2c-.2-3.7-3.2-6.6-6.9-6.6-3.6 0-6.6 2.9-6.9 6.6h-6.3v17.3h26.4v-17.3h-6.3z"/><path class="st28" d="M931.5 644.5v-17.3h13.9v17.3"/><path class="st25" d="M945.3 653.1c-.2-3.7-3.2-6.6-6.9-6.6-3.6 0-6.6 2.9-6.9 6.6h-6.3v17.3h26.4v-17.3h-6.3z"/><path class="st28" d="M931.5 670.4v-17.3h13.9v17.3"/><g><path class="st25" d="M983.9 627.2c-.2-3.7-3.2-6.6-6.9-6.6s-6.6 2.9-6.9 6.6h-6.3v17.3h26.4v-17.3h-6.3z"/><path class="st28" d="M970.1 644.5v-17.3h13.8v17.3"/></g><g><path class="st25" d="M983.9 653.1c-.2-3.7-3.2-6.6-6.9-6.6s-6.6 2.9-6.9 6.6h-6.3v17.3h26.4v-17.3h-6.3z"/><path class="st28" d="M970.1 670.4v-17.3h13.8v17.3"/></g></g></g><g><path class="st25" d="M895.1 627.2c-.2-3.7-3.2-6.6-6.9-6.6s-6.6 2.9-6.9 6.6H875v17.3h26.4v-17.3h-6.3z"/><path class="st28" d="M881.3 644.5v-17.3h13.8v17.3"/></g></g></svg>